<svg id="logos" xmlns="http://www.w3.org/2000/svg" viewBox="0 0 16 16"><defs><style>.cls-1{fill:#22577a;}.cls-2{fill:#e59c24;}</style></defs><rect class="cls-1" x="0.25" y="0.25" width="15.5" height="15.5" rx="4.46"/><path class="cls-2" d="M10.7,3.77l-.1.14a6.85,6.85,0,0,1-7,2.77l0,.13.21,1.47a8,8,0,0,0,2.43,0A8.21,8.21,0,0,0,11,5.89c.19-.2.37-.4.55-.62L11.82,5,12,4.79l.47.47V3.15l-2.27.12Z"/><path class="cls-2" d="M6.59,3.55V6a1.1,1.1,0,0,1-.25.15,3,3,0,0,1-1.43.33,5.16,5.16,0,0,0,2.38-.33,6.5,6.5,0,0,0,1.64-.89v-.1h0V3.29Z"/><path class="cls-2" d="M9.76,10.94h.84v1.92H9.92l-.83,0a3,3,0,0,1-1.79-.58,2.72,2.72,0,0,1-.71-2.2V8.54A9.49,9.49,0,0,0,9,7.74,8.9,8.9,0,0,0,10.8,6.59a8.5,8.5,0,0,1-.67.68,9.23,9.23,0,0,1-1.2.94v1.84a.9.9,0,0,0,.22.67A1,1,0,0,0,9.76,10.94Z"/></svg>