<svg id="logos" xmlns="http://www.w3.org/2000/svg" viewBox="0 0 826.58 460.56"><defs><style>.cls-1{fill:#fff;}</style></defs><path class="cls-1" d="M286.16,216.75a34.44,34.44,0,0,1,12.15,7.51l-13.59,23.68a38.85,38.85,0,0,0-8-3.91,24.67,24.67,0,0,0-7.82-1.23q-10.31,0-16.27,6.58t-6,19.36v49.42H214.3V216.44h28.21L245,229.21q9.89-15,27.18-15A40.2,40.2,0,0,1,286.16,216.75Z"/><path class="cls-1" d="M311.8,201.41a17.78,17.78,0,0,1,.1-25.33,21.16,21.16,0,0,1,27.18,0,17.77,17.77,0,0,1,.11,25.33q-5.25,4.93-13.7,4.94T311.8,201.41Zm-2.57,15h32.32V318.16H309.23Z"/><path class="cls-1" d="M455,221.07a45.64,45.64,0,0,1,17.3,18.74q6.18,12,6.18,27.49t-6.18,27.49A45.64,45.64,0,0,1,455,313.53a48.13,48.13,0,0,1-25.32,6.69q-19,0-31.51-11.94v54H365.85V216.44h28l2.05,11.94q12.78-14,33.78-14A48.13,48.13,0,0,1,455,221.07Zm-15.44,64.87q6.8-7.11,6.8-18.64t-6.8-18.64q-6.79-7.09-17.5-7.1t-17.4,7.21Q398,256,398,267.3t6.69,18.53q6.69,7.21,17.4,7.21T439.57,285.94Z"/><path class="cls-1" d="M496.81,174h32.33V318.16H496.81Z"/><path class="cls-1" d="M573.93,313.73a47.15,47.15,0,0,1-19.46-18.63q-6.79-11.94-6.8-27.8t6.8-27.8a47.15,47.15,0,0,1,19.46-18.63q12.66-6.69,29.55-6.7t29.65,6.7a47.05,47.05,0,0,1,19.56,18.63q6.79,11.94,6.8,27.8t-6.8,27.8a47.05,47.05,0,0,1-19.56,18.63q-12.76,6.69-29.65,6.7T573.93,313.73Zm46.84-27.9q6.6-7.2,6.59-18.53t-6.59-18.53q-6.59-7.22-17.29-7.21-10.51,0-17.09,7.21t-6.6,18.53q0,11.32,6.6,18.53T603.48,293Q614.17,293,620.77,285.83Z"/><path class="cls-1" d="M698.5,313.73a47.19,47.19,0,0,1-19.45-18.63q-6.79-11.94-6.8-27.8t6.8-27.8a47.19,47.19,0,0,1,19.45-18.63q12.68-6.69,29.55-6.7t29.66,6.7a47.05,47.05,0,0,1,19.56,18.63q6.79,11.94,6.79,27.8t-6.79,27.8a47.05,47.05,0,0,1-19.56,18.63q-12.78,6.69-29.66,6.7T698.5,313.73Zm46.85-27.9q6.58-7.2,6.59-18.53t-6.59-18.53q-6.58-7.22-17.3-7.21-10.5,0-17.09,7.21t-6.59,18.53q0,11.32,6.59,18.53T728.05,293Q738.76,293,745.35,285.83Z"/><path class="cls-1" d="M199.07,114.15l-2.41,3.17c-39.6,52.09-92.59,73-157.54,62.22l.4,2.94c1.48,10.87,3,22.1,4.68,33.13,17,2.4,34.89,2.11,54.69-.91,42.33-6.45,78.1-24.27,106.32-53,4.26-4.34,8.29-9,12.56-13.86,2-2.36,4.15-4.77,6.35-7.23l3.07-3.44,10.36,10.36V100.29L186.75,103Z"/><path class="cls-1" d="M106.75,109.21v54.52a40,40,0,0,1-5.81,3.29c-18.19,7.56-22.69,7.23-32,7.4,11.59,1.5,28.05,1.17,53.46-7.42,15.76-5.34,29.32-14.55,36.76-19.92v-2.41h0V103.49Z"/><path class="cls-1" d="M178,275.24c2,.17,2.47,0,9.65-.06,3.82,0,7,0,9,0l-.09,43c-3.48,0-8.69,0-15,0-7.45-.06-15.91-.2-18.65-.31-4.08-.17-26.09-1.05-40.36-13.24-18.86-16.1-16.22-45.12-15.79-49.24V237.28l-.09-16a202.85,202.85,0,0,0,94.67-43.79c-4.44,5-9.44,10.12-15.05,15.27A212,212,0,0,1,159.17,214V255.4q0,10.08,5.05,15C168.45,274.46,174.41,274.92,178,275.24Z"/></svg>